<?xml version="1.0" standalone="no"?>
<svg xmlns:xlink="http://www.w3.org/1999/xlink" id="wave" style="transform:rotate(0deg); transition: 0.3s" viewBox="0 0 1440 340" version="1.1" xmlns="http://www.w3.org/2000/svg"><defs><linearGradient id="sw-gradient-0" x1="0" x2="0" y1="1" y2="0"><stop stop-color="rgba(241, 174, 185, 1)" offset="0%"/><stop stop-color="rgba(232.09, 122.597, 134.762, 1)" offset="100%"/></linearGradient></defs><path style="transform:translate(0, 0px); opacity:1" fill="url(#sw-gradient-0)" d="M0,34L17.1,73.7C34.3,113,69,193,103,238C137.1,283,171,295,206,277.7C240,261,274,215,309,187C342.9,159,377,147,411,170C445.7,193,480,249,514,243.7C548.6,238,583,170,617,147.3C651.4,125,686,147,720,170C754.3,193,789,215,823,226.7C857.1,238,891,238,926,215.3C960,193,994,147,1029,141.7C1062.9,136,1097,170,1131,164.3C1165.7,159,1200,113,1234,85C1268.6,57,1303,45,1337,56.7C1371.4,68,1406,102,1440,136C1474.3,170,1509,204,1543,198.3C1577.1,193,1611,147,1646,153C1680,159,1714,215,1749,249.3C1782.9,283,1817,295,1851,260.7C1885.7,227,1920,147,1954,96.3C1988.6,45,2023,23,2057,39.7C2091.4,57,2126,113,2160,136C2194.3,159,2229,147,2263,147.3C2297.1,147,2331,159,2366,141.7C2400,125,2434,79,2451,56.7L2468.6,34L2468.6,340L2451.4,340C2434.3,340,2400,340,2366,340C2331.4,340,2297,340,2263,340C2228.6,340,2194,340,2160,340C2125.7,340,2091,340,2057,340C2022.9,340,1989,340,1954,340C1920,340,1886,340,1851,340C1817.1,340,1783,340,1749,340C1714.3,340,1680,340,1646,340C1611.4,340,1577,340,1543,340C1508.6,340,1474,340,1440,340C1405.7,340,1371,340,1337,340C1302.9,340,1269,340,1234,340C1200,340,1166,340,1131,340C1097.1,340,1063,340,1029,340C994.3,340,960,340,926,340C891.4,340,857,340,823,340C788.6,340,754,340,720,340C685.7,340,651,340,617,340C582.9,340,549,340,514,340C480,340,446,340,411,340C377.1,340,343,340,309,340C274.3,340,240,340,206,340C171.4,340,137,340,103,340C68.6,340,34,340,17,340L0,340Z"/></svg>