<?xml version="1.0" standalone="no"?>
<!DOCTYPE svg PUBLIC "-//W3C//DTD SVG 20010904//EN"
 "http://www.w3.org/TR/2001/REC-SVG-20010904/DTD/svg10.dtd">
<svg version="1.0" xmlns="http://www.w3.org/2000/svg"
 width="300.000000pt" height="191.000000pt" viewBox="0 0 300.000000 191.000000"
 preserveAspectRatio="xMidYMid meet">
<metadata>
Created by potrace 1.10, written by Peter Selinger 2001-2011
</metadata>
<g transform="translate(0.000000,191.000000) scale(0.100000,-0.100000)"
fill="#000000" stroke="none">
<path d="M1180 1805 c-503 -55 -898 -243 -1019 -484 -40 -78 -55 -159 -42
-220 7 -32 7 -60 1 -82 -26 -88 -3 -264 47 -365 164 -336 769 -550 1426 -505
504 35 838 151 1052 365 149 149 191 258 181 466 -3 63 -6 129 -6 145 -2 341
-424 607 -1075 680 -155 18 -406 18 -565 0z m705 -59 c355 -60 615 -173 765
-332 70 -74 94 -113 116 -189 14 -51 15 -70 6 -130 -22 -136 -128 -362 -216
-461 -91 -103 -175 -124 -329 -82 -108 29 -218 27 -412 -6 -138 -23 -158 -29
-258 -81 -134 -68 -180 -72 -282 -25 -105 48 -135 41 -238 -56 -80 -76 -116
-94 -186 -94 -94 0 -151 58 -301 306 -33 55 -110 138 -261 282 -181 173 -177
380 12 557 181 171 484 283 899 334 41 5 179 8 305 6 191 -2 256 -7 380 -29z
m910 -818 c-4 -46 -14 -107 -22 -137 -68 -263 -366 -468 -808 -556 -330 -65
-648 -70 -970 -13 -136 23 -180 36 -127 37 55 1 103 29 178 101 65 63 76 70
113 70 22 0 71 -12 108 -26 102 -38 177 -32 269 23 105 64 277 104 499 119 93
6 106 4 180 -21 180 -63 284 -19 410 169 54 83 155 278 155 303 0 7 5 13 11
13 8 0 9 -25 4 -82z m-2529 -89 c22 -20 64 -55 95 -77 73 -53 110 -99 203
-254 53 -88 94 -142 133 -179 64 -58 59 -58 -71 -2 -181 77 -346 204 -410 315
-37 66 -66 186 -66 276 l0 75 39 -59 c21 -32 56 -75 77 -95z"/>
<path d="M1025 1705 c-249 -58 -461 -156 -618 -288 -106 -88 -188 -246 -186
-357 1 -30 3 -46 5 -35 3 11 9 47 16 80 18 98 62 179 142 260 72 73 193 160
276 197 25 11 68 31 96 43 57 26 219 77 313 99 34 8 66 17 69 20 8 9 -4 7
-113 -19z"/>
<path d="M1984 1697 c64 -42 148 -108 194 -151 56 -53 80 -90 93 -141 l7 -30
1 35 c0 19 -8 51 -20 70 -37 62 -179 180 -254 213 -22 9 -32 11 -21 4z"/>
<path d="M1640 1670 c-32 -32 -25 -66 18 -89 34 -18 72 9 72 51 0 53 -52 76
-90 38z m78 -34 c4 -21 -15 -46 -36 -46 -24 0 -51 30 -45 48 11 32 35 43 57
28 12 -7 22 -21 24 -30z"/>
<path d="M912 1638 c-17 -17 -15 -53 3 -68 8 -7 25 -10 40 -6 20 5 25 13 25
36 0 40 -42 64 -68 38z m46 -7 c8 -4 12 -19 10 -32 -4 -34 -52 -34 -56 0 -3
20 11 41 28 41 3 0 11 -4 18 -9z"/>
<path d="M2110 1459 c87 -39 129 -103 115 -177 -20 -113 -132 -182 -350 -217
-503 -81 -1057 13 -1131 191 -18 43 -6 75 49 127 41 38 41 39 8 21 -39 -22
-78 -76 -87 -121 -9 -46 33 -114 99 -158 125 -85 460 -144 737 -130 323 16
561 72 677 161 41 31 37 45 -4 17 -15 -11 -39 -26 -53 -33 -21 -10 -19 -6 12
26 47 49 68 100 68 163 0 63 -36 108 -106 134 -67 24 -89 21 -34 -4z"/>
<path d="M2392 1464 c-32 -22 -26 -65 10 -78 22 -8 32 -6 48 9 25 23 25 40 0
65 -24 24 -29 24 -58 4z m53 -34 c0 -20 -6 -26 -27 -28 -24 -3 -28 0 -28 21 0
30 9 39 35 35 14 -2 20 -10 20 -28z"/>
<path d="M1590 1443 c-14 -2 -65 -8 -115 -14 -141 -16 -284 -47 -467 -100
-181 -52 -197 -59 -219 -85 -12 -14 -8 -14 26 3 38 19 90 38 131 48 10 3 66
18 124 35 109 32 315 75 410 85 30 3 71 8 90 10 19 3 114 7 210 9 138 4 196 1
273 -13 106 -19 118 -12 22 14 -47 12 -104 15 -260 13 -110 -1 -211 -3 -225
-5z"/>
<path d="M534 1247 c-39 -21 -44 -52 -15 -85 23 -27 41 -28 74 -2 50 39 -3
118 -59 87z m60 -29 c16 -26 -4 -53 -40 -53 -25 0 -30 4 -32 29 -6 46 47 63
72 24z"/>
<path d="M2491 1241 c-10 -10 -21 -25 -23 -32 -3 -10 -11 -8 -33 9 -15 12 -33
22 -40 22 -7 0 -52 -29 -100 -65 -48 -36 -84 -65 -80 -65 14 0 79 42 129 84
l49 40 38 -42 c65 -74 84 -124 84 -227 0 -78 -4 -97 -28 -146 -50 -103 -143
-170 -265 -191 -60 -10 -90 -9 -223 10 -261 38 -309 31 -420 -60 -134 -109
-185 -120 -307 -68 -107 45 -139 42 -252 -27 -117 -71 -169 -80 -230 -39 -48
32 -90 86 -137 181 -81 161 -172 250 -295 291 -29 9 -71 25 -93 36 l-40 19 25
-20 c14 -11 50 -30 80 -42 153 -62 218 -122 301 -281 56 -106 114 -180 161
-204 51 -26 120 -20 185 17 179 100 178 100 295 52 124 -51 192 -35 325 76 33
28 73 55 88 61 49 19 192 14 334 -11 204 -35 376 19 455 145 70 109 80 221 31
347 -5 12 2 18 26 23 65 13 90 65 49 106 -25 25 -64 26 -89 1z m73 -17 c19
-18 19 -20 6 -45 -13 -23 -52 -25 -70 -4 -10 12 -10 21 -2 40 13 29 43 33 66
9z"/>
<path d="M1735 952 c0 -22 -4 -27 -25 -27 -17 0 -26 7 -32 25 -7 25 -7 25 -5
1 3 -32 31 -50 55 -35 20 13 28 42 15 55 -5 5 -9 -3 -8 -19z"/>
<path d="M2221 883 c-21 -26 -21 -53 1 -80 18 -22 64 -15 82 12 21 33 20 42
-9 70 -31 32 -48 31 -74 -2z m69 -7 c6 -8 10 -25 8 -38 -2 -19 -9 -23 -38 -23
-29 0 -36 4 -38 23 -4 28 14 52 38 52 10 0 23 -7 30 -14z"/>
<path d="M1187 809 c-21 -29 -7 -72 25 -83 56 -20 103 48 62 88 -22 23 -70 20
-87 -5z m71 -1 c34 -34 -6 -90 -48 -68 -35 19 -20 80 20 80 9 0 21 -5 28 -12z"/>
<path d="M700 722 c-28 -23 -20 -59 16 -68 47 -12 72 37 36 69 -23 21 -25 21
-52 -1z m60 -26 c0 -23 -30 -41 -48 -30 -23 15 -25 29 -7 48 12 12 21 13 36 6
10 -6 19 -17 19 -24z"/>
<path d="M2023 461 c-68 -64 -152 -115 -288 -173 -106 -46 -130 -63 -47 -34
146 52 326 161 373 227 11 16 19 29 17 29 -2 -1 -27 -23 -55 -49z"/>
<path d="M2758 1445 c107 -136 126 -211 127 -500 0 -122 -3 -150 -24 -214
-109 -331 -517 -562 -1116 -632 -177 -20 -524 -16 -685 10 -296 47 -503 121
-705 253 l-60 39 40 -35 c22 -19 76 -56 119 -82 357 -212 930 -285 1486 -188
359 63 647 199 815 388 31 34 75 101 100 151 70 139 83 255 57 495 -15 133
-54 220 -136 305 -57 59 -57 59 -18 10z"/>
</g>
</svg>
