<?xml version="1.0" standalone="no"?>
<svg xmlns:xlink="http://www.w3.org/1999/xlink" id="wave" style="transform:rotate(0deg); transition: 0.3s" viewBox="0 0 1440 340" version="1.1" xmlns="http://www.w3.org/2000/svg"><defs><linearGradient id="sw-gradient-0" x1="0" x2="0" y1="1" y2="0"><stop stop-color="rgba(241, 174, 185, 1)" offset="0%"/><stop stop-color="rgba(232.09, 122.597, 134.762, 1)" offset="100%"/></linearGradient></defs><path style="transform:translate(0, 0px); opacity:1" fill="url(#sw-gradient-0)" d="M0,34L21.8,73.7C43.6,113,87,193,131,238C174.5,283,218,295,262,277.7C305.5,261,349,215,393,187C436.4,159,480,147,524,170C567.3,193,611,249,655,243.7C698.2,238,742,170,785,147.3C829.1,125,873,147,916,170C960,193,1004,215,1047,226.7C1090.9,238,1135,238,1178,215.3C1221.8,193,1265,147,1309,141.7C1352.7,136,1396,170,1440,164.3C1483.6,159,1527,113,1571,85C1614.5,57,1658,45,1702,56.7C1745.5,68,1789,102,1833,136C1876.4,170,1920,204,1964,198.3C2007.3,193,2051,147,2095,153C2138.2,159,2182,215,2225,249.3C2269.1,283,2313,295,2356,260.7C2400,227,2444,147,2487,96.3C2530.9,45,2575,23,2618,39.7C2661.8,57,2705,113,2749,136C2792.7,159,2836,147,2880,147.3C2923.6,147,2967,159,3011,141.7C3054.5,125,3098,79,3120,56.7L3141.8,34L3141.8,340L3120,340C3098.2,340,3055,340,3011,340C2967.3,340,2924,340,2880,340C2836.4,340,2793,340,2749,340C2705.5,340,2662,340,2618,340C2574.5,340,2531,340,2487,340C2443.6,340,2400,340,2356,340C2312.7,340,2269,340,2225,340C2181.8,340,2138,340,2095,340C2050.9,340,2007,340,1964,340C1920,340,1876,340,1833,340C1789.1,340,1745,340,1702,340C1658.2,340,1615,340,1571,340C1527.3,340,1484,340,1440,340C1396.4,340,1353,340,1309,340C1265.5,340,1222,340,1178,340C1134.5,340,1091,340,1047,340C1003.6,340,960,340,916,340C872.7,340,829,340,785,340C741.8,340,698,340,655,340C610.9,340,567,340,524,340C480,340,436,340,393,340C349.1,340,305,340,262,340C218.2,340,175,340,131,340C87.3,340,44,340,22,340L0,340Z"/></svg>